/* XPM */
static char *d3c039ea71804c98d14e669280afa1aaNkjdtYISA4Y0Hacn[] = {
/* columns rows colors chars-per-pixel */
"64 64 18 1 ",
"  c blue",
". c black",
"X c #010000",
"o c #000001",
"O c #000100",
"+ c #010001",
"@ c #00005F",
"# c #00007F",
"$ c #00017F",
"% c #01007F",
"& c navy",
"* c #0000BF",
"= c #010100",
"- c #000090",
"; c #0000C0",
": c #0000EF",
"> c #000101",
", c #0000DF",
/* pixels */
"                                                                ",
"                                                                ",
"                                                                ",
"                                                                ",
"                                                                ",
"                                                                ",
"                                                                ",
"                                                                ",
"                                                                ",
"                                                                ",
"                                                                ",
"                    .X.o...O.........O.o..oX                    ",
"                    ..X........o..X.......O.                    ",
"                    .....X........+.....oOX.                    ",
"                    ....O...............X...                    ",
"                    .oO..@#$#%&#$###########                    ",
"                    ...X.*                                      ",
"                    ..X..*                                      ",
"                    ...=.*                                      ",
"                    .....*                                      ",
"                    .oXO.*                                      ",
"                    Xo.o.*                                      ",
"                    X.O.X*                                      ",
"                    .....*                                      ",
"                    .....*                                      ",
"                    .....*                                      ",
"                    ..o..-;;;;;;;;;;;;;;;;;:                    ",
"                    .O....O..X.X.O..X...OoO*                    ",
"                    o.Ooo..o..OO.....o.O...*                    ",
"                    ......o.......o...O....*                    ",
"                    ....o...X....Oo.......X*                    ",
"                    ..O..*                                      ",
"                    >..X.*                                      ",
"                    .....*                                      ",
"                    ..OXX*                                      ",
"                    ....X*                                      ",
"                    .....*                                      ",
"                    ....o*                                      ",
"                    ....O*                                      ",
"                    .....*                                      ",
"                    .....*                                      ",
"                    .....*                                      ",
"                    ....o*                                      ",
"                    .o.+O*                                      ",
"                    .....-;;;;;;;;;;;;;;;;;;,                   ",
"                    ...o>XX...X..........X..#                   ",
"                    .o.Xo.O.o..XO...XOO>..O.#                   ",
"                    .....XX..oXoO..Xo......O#                   ",
"                    ....o......X........OX.X#                   ",
"                                                                ",
"                                                                ",
"                                                                ",
"                                                                ",
"                                                                ",
"                                                                ",
"                                                                ",
"                                                                ",
"                                                                ",
"                                                                ",
"                                                                ",
"                                                                ",
"                                                                ",
"                                                                ",
"                                                                "
};
