/* XPM */
static char *_5bc4b9e4c4742f18db49dc58eec4c37nqMhhrkCrOvTFdq0[] = {
/* columns rows colors chars-per-pixel */
"64 64 37 1 ",
"  c #00FF2A",
". c black",
"X c #00BF1F",
"o c #003F0A",
"O c #010000",
"+ c #00400B",
"@ c #000001",
"# c #003108",
"$ c #000100",
"% c #009F1A",
"& c #002005",
"* c #00EF27",
"= c #008015",
"- c #001003",
"; c #004F0D",
": c #007F15",
"> c #00DF25",
", c #013F0A",
"< c #005F10",
"1 c #000101",
"2 c #010100",
"3 c #006F12",
"4 c #000F03",
"5 c #00BF20",
"6 c #000F02",
"7 c #017F15",
"8 c #001F05",
"9 c #003008",
"0 c #009F1B",
"q c #010101",
"w c #003F0B",
"e c #004F0E",
"r c #011003",
"t c #012005",
"y c #010001",
"u c #008F18",
"i c #001F06",
/* pixels */
"                                                                ",
"                                                                ",
"                                                                ",
"                                                                ",
"                                                                ",
"                                                                ",
"                                                                ",
"                                                                ",
"                                                                ",
"                                                                ",
"                                                                ",
"                  .......X               X....o                 ",
"                  ..O....+               XO...o                 ",
"                  ....@..OX              X....o                 ",
"                  ....@...#              X....o                 ",
"                  ........$%             X....o                 ",
"                  ....$..$.&             X....o                 ",
"                  .....o....%            X@...o                 ",
"                  @...@X....&*           X....o                 ",
"                  ..... o....=           XO...o                 ",
"                  ..... X....-*          X..$.o                 ",
"                  .....  ;.@@@:          X....o                 ",
"                  ..@..  >@...-*         X....,                 ",
"                  .....   <....<         X..1.o                 ",
"                  ....2   >O..@.>        X....o                 ",
"                  .....    3...$<        X....o                 ",
"                  .....    *4..O.>       5.@..o                 ",
"                  .....     :....+       X...Oo                 ",
"                  O....     *6.O$.X      X....o                 ",
"                  ....@      7@...+      5.O..o                 ",
"                  O....       8O.$.X     X....o                 ",
"                  ..O..       %....9     X....o                 ",
"                  .....        8...O0    X....o                 ",
"                  .....        0..@q&    X....w                 ",
"                  .....         o$.@.%   X....o                 ",
"                  .O.O.         X..@.-*  X....o                 ",
"                  .....          wO.2.:  X$...,                 ",
"                  .....          X..@.-* X$...o                 ",
"                  O....           e....7 X..@.o                 ",
"                  ...1.           >....r>X2.@Oo                 ",
"                  ...O.            <O..O<X...$o                 ",
"                  ...$.            >.....%....o                 ",
"                  $....             3..$.t....o                 ",
"                  .....             *6@O$O....o                 ",
"                  $....              :..@y....w                 ",
"                  .....              *4.O$O.$.w                 ",
"                  ..@$.               u.......o                 ",
"                  ...O.                iO$....o                 ",
"                  ....y                %@..O..o                 ",
"                                                                ",
"                                                                ",
"                                                                ",
"                                                                ",
"                                                                ",
"                                                                ",
"                                                                ",
"                                                                ",
"                                                                ",
"                                                                ",
"                                                                ",
"                                                                ",
"                                                                ",
"                                                                ",
"                                                                "
};
