/* XPM */
static char *ce078d7d16294efccc658eb9a752b537KkcDMg1bgUd5ScCj[] = {
/* columns rows colors chars-per-pixel */
"64 64 39 1 ",
"  c red",
". c #DF0000",
"X c #A00000",
"o c #800000",
"O c #B00000",
"+ c #C00000",
"@ c #CF0000",
"# c #600001",
"$ c #100000",
"% c black",
"& c #000001",
"* c #010000",
"= c #300000",
"- c #600000",
"; c #EF0000",
": c #400000",
"> c #000100",
", c #6F0000",
"< c #3F0000",
"1 c #1F0000",
"2 c #4F0001",
"3 c #7F0000",
"4 c #100001",
"5 c #AF0000",
"6 c #5F0000",
"7 c #0F0000",
"8 c #9F0000",
"9 c #4F0000",
"0 c #BF0000",
"q c #7F0001",
"w c #200000",
"e c #010001",
"r c #700000",
"t c #500000",
"y c #5F0100",
"u c #2F0000",
"i c #8F0000",
"p c #3F0100",
"a c #500001",
/* pixels */
"                                                                ",
"                                                                ",
"                                                                ",
"                                                                ",
"                                                                ",
"                                                                ",
"                                                                ",
"                                                                ",
"                                                                ",
"                                                                ",
"                           .XooooooO+                           ",
"                        @#$%%%%%%&%%*%=-X;                      ",
"                      .:*%%%>%%%%%%%%>%%%%,                     ",
"                     @$%%%%%&%%%%>%%%%%%%*<                     ",
"                    @$%>&>%>%1<23<<1>%%%%%<                     ",
"                   ;4%%%%%13;       ;567%&<                     ",
"                   ,*%%%%6              8<<                     ",
"                   $%%%%9                 .                     ",
"                  0%%%%%;                                       ",
"                  q*%%%1                                        ",
"                  3%&%*6                                        ",
"                  3%%%%:                                        ",
"                  8*%*%w                                        ",
"                  0%>%%%0                                       ",
"                   %%%%>$.                                      ",
"                   9%%%%%%-@                                    ",
"                   ;7%%%%ee%$-X@                                ",
"                    5%&%&%%%&*&%%:rO;                           ",
"                     87%%%%%%>%*%%%>%tO                         ",
"                      .y%%%%%%%%&%%%%%%w0                       ",
"                        .,w%%%%%%%>%%&%%*r                      ",
"                           .86u%%%%%&%%%&%,                     ",
"                                03u%%%%%%*%0                    ",
"                                   .6>%>%%%=                    ",
"                                     07%%>%%i                   ",
"                                      5%%%%%6                   ",
"                                       <%*%>p                   ",
"                                       3%%%%%                   ",
"                                       5%%%%%                   ",
"                                       8%%%%%                   ",
"                                       ,%%%*%                   ",
"                                       =>%%%u                   ",
"                  io;                 3>%%%%i                   ",
"                  3%$o.              8*>%&%&.                   ",
"                  3%%%*:X.         X:*%&%%>q                    ",
"                  3%*%%%%%$:oooot:w%%%%%%%u;                    ",
"                  3%>%%e%>%%&%*%%%*%%%>%&=;                     ",
"                  @67%%>%**%%%%%%*%%%>>7i                       ",
"                     5,u%%*%%>%%%%%%>ui;                        ",
"                        ;0836<p<a330;                           ",
"                                                                ",
"                                                                ",
"                                                                ",
"                                                                ",
"                                                                ",
"                                                                ",
"                                                                ",
"                                                                ",
"                                                                ",
"                                                                ",
"                                                                ",
"                                                                ",
"                                                                ",
"                                                                "
};
