/* XPM */
static char *_1d79670133a4e0e9cd6508dd4bdac4eE53mqYZQQWhk5TMj[] = {
/* columns rows colors chars-per-pixel */
"64 64 36 1 ",
"  c yellow",
". c #CFCF00",
"X c black",
"o c #BFBF00",
"O c #4F4F00",
"+ c #5F5F00",
"@ c #0F0F00",
"# c #010000",
"$ c #7F7F00",
"% c #000001",
"& c #101000",
"* c #202100",
"= c #9F9F00",
"- c #000100",
"; c #3F3F00",
": c #EFEF00",
"> c #DFDF00",
", c #8F8F00",
"< c #AFAF00",
"1 c #1F1F00",
"2 c #4F4F01",
"3 c #6F6F00",
"4 c #2F2F00",
"5 c #101100",
"6 c #303000",
"7 c #010001",
"8 c #4F5000",
"9 c #000101",
"0 c #0F1000",
"q c #6F6F01",
"w c #2F2F01",
"e c #706F00",
"r c #7F8000",
"t c #303100",
"y c #3F4000",
"u c #4F5001",
/* pixels */
"                                                                ",
"                                                                ",
"                                                                ",
"                                                                ",
"                                                                ",
"                                                                ",
"                                                                ",
"                                                                ",
"                                                                ",
"                                                                ",
"                                                                ",
"                                                                ",
"                                                                ",
"        .XXXXX               oXXXXXO               +XXXX+       ",
"         @#XXXo              $XXXX%&               *XXXX=       ",
"         O-X#X$              ;XX#XXX.             :XXXXX>       ",
"         ,X%XX;              XX%XXXX,             <X-XX1        ",
"         .#-XXX             oX%-XX-X2             3XXXX+        ",
"          @XXXXo            $%XX4X#%5             6X%XX=        ",
"          O7X%X$            ;XXX=@X#X.           :XXXXX>        ",
"          ,XXXX;            %XXX>OXXX,           <-XXX1         ",
"          .-XX%X           oXX#@ ,-XX8           3XXXX+         ",
"           @XXX#o          $XXXO .X%X&           6XXXX=         ",
"           OXXXX$          ;XXX,  @XXX.         :XXXXX>         ",
"           ,XX%X;          XXXX.  O#XX,         <XXXX1          ",
"           .#XXXX         oXXX@   ,XXXO         3XXXX+          ",
"            @XXXXo        $%XXO   .XXX&         6XXX#<          ",
"            OXXXX$        ;#XX,    XXXX.       :X%XXX:          ",
"            ,XX#X;        XXX%.    ;X9X,       <XXXX4           ",
"            .XXXXX       oXXX0     $XXXO       3X%XXq           ",
"             @XXXXo      $XXXO     o#XX&       6XXXX<           ",
"             8XXXX$      ;XXX,      XXX%.     :XXXXX:           ",
"             ,%XXX;      X%XX.      ;XXX,     <XX-Xw            ",
"             .XX-XX     oXXX@       $#XXO     eXX9X3            ",
"              @XXX%o    $XX#;       oXXX5     6XXX-<            ",
"              OXXXX$    ;XXX$        XXXX.   :XXX%X:            ",
"              ,XXXX;    XXX%o        4XXX,   <XXXX4             ",
"              .XXXXX   oX-XX         3X#XO   3XXXX3             ",
"               @XXXXo  rXXX;         <XXX&   tXXXX<             ",
"               OXXXX$  ;XXX$         :XXXX. :XX--X:             ",
"               ,%#XXy  XXXXo          4XXX, <X%XX4              ",
"               .XXX-X oXXXX           3XXXO 3XX#X3              ",
"                @XXXXo$XXX;           <XX-& 6XXXX<              ",
"                OXXXX$yXXX$           :XXXX.XXXXX:              ",
"                ,XXXX;&XXXo            4%XXu#XXX4               ",
"                >XXXXXXXXX             +XXXXXXXX3               ",
"                 1XXXX-XX;             =XXX#XXXX<               ",
"                 +XXXXXXX$             >XXXXXXXX:               ",
"                 =XXXXXXX<              1XXXXXX4                ",
"                 >X#XXXXX:              +XXXXX-3                ",
"                  1XXXXX4               =XXXXXX<                ",
"                                                                ",
"                                                                ",
"                                                                ",
"                                                                ",
"                                                                ",
"                                                                ",
"                                                                ",
"                                                                ",
"                                                                ",
"                                                                ",
"                                                                ",
"                                                                ",
"                                                                "
};
